0
SECTION
2
HEADER
9
$INSUNITS
70
4
0
ENDSEC
0
SECTION
2
TABLES
0
TABLE
2
LTYPE
0
LTYPE
72
65
70
64
2
CONTINUOUS
3
______
73
0
40
0
0
ENDTAB
0
TABLE
2
LAYER
0
ENDTAB
0
ENDSEC
0
SECTION
2
ENTITIES
0
LINE
8
0
10
-7
20
-7
11
7
21
-7
0
LINE
8
0
10
7
20
-7
11
7
21
7
0
LINE
8
0
10
7
20
7
11
-7
21
7
0
LINE
8
0
10
-7
20
7
11
-7
21
-7
0
LINE
8
0
10
-7
20
12.05
11
7
21
12.05
0
LINE
8
0
10
7
20
12.05
11
7
21
26.05
0
LINE
8
0
10
7
20
26.05
11
-7
21
26.05
0
LINE
8
0
10
-7
20
26.05
11
-7
21
12.05
0
LINE
8
0
10
-7
20
31.1
11
7
21
31.1
0
LINE
8
0
10
7
20
31.1
11
7
21
45.1
0
LINE
8
0
10
7
20
45.1
11
-7
21
45.1
0
LINE
8
0
10
-7
20
45.1
11
-7
21
31.1
0
LINE
8
0
10
12
20
2.525
11
26
21
2.525
0
LINE
8
0
10
26
20
2.525
11
26
21
16.525
0
LINE
8
0
10
26
20
16.525
11
12
21
16.525
0
LINE
8
0
10
12
20
16.525
11
12
21
2.525
0
LINE
8
0
10
12
20
21.575
11
26
21
21.575
0
LINE
8
0
10
26
20
21.575
11
26
21
35.575
0
LINE
8
0
10
26
20
35.575
11
12
21
35.575
0
LINE
8
0
10
12
20
35.575
11
12
21
21.575
0
LINE
8
0
10
12
20
40.625
11
26
21
40.625
0
LINE
8
0
10
26
20
40.625
11
26
21
54.625
0
LINE
8
0
10
26
20
54.625
11
12
21
54.625
0
LINE
8
0
10
12
20
54.625
11
12
21
40.625
0
LINE
8
0
10
31
20
4.43
11
45
21
4.43
0
LINE
8
0
10
45
20
4.43
11
45
21
18.43
0
LINE
8
0
10
45
20
18.43
11
31
21
18.43
0
LINE
8
0
10
31
20
18.43
11
31
21
4.43
0
LINE
8
0
10
31
20
23.48
11
45
21
23.48
0
LINE
8
0
10
45
20
23.48
11
45
21
37.48
0
LINE
8
0
10
45
20
37.48
11
31
21
37.48
0
LINE
8
0
10
31
20
37.48
11
31
21
23.48
0
LINE
8
0
10
31
20
42.53
11
45
21
42.53
0
LINE
8
0
10
45
20
42.53
11
45
21
56.53
0
LINE
8
0
10
45
20
56.53
11
31
21
56.53
0
LINE
8
0
10
31
20
56.53
11
31
21
42.53
0
LINE
8
0
10
50
20
2.525
11
64
21
2.525
0
LINE
8
0
10
64
20
2.525
11
64
21
16.525
0
LINE
8
0
10
64
20
16.525
11
50
21
16.525
0
LINE
8
0
10
50
20
16.525
11
50
21
2.525
0
LINE
8
0
10
50
20
21.575
11
64
21
21.575
0
LINE
8
0
10
64
20
21.575
11
64
21
35.575
0
LINE
8
0
10
64
20
35.575
11
50
21
35.575
0
LINE
8
0
10
50
20
35.575
11
50
21
21.575
0
LINE
8
0
10
50
20
40.625
11
64
21
40.625
0
LINE
8
0
10
64
20
40.625
11
64
21
54.625
0
LINE
8
0
10
64
20
54.625
11
50
21
54.625
0
LINE
8
0
10
50
20
54.625
11
50
21
40.625
0
LINE
8
0
10
69
20
0.62
11
83
21
0.62
0
LINE
8
0
10
83
20
0.62
11
83
21
14.62
0
LINE
8
0
10
83
20
14.62
11
69
21
14.62
0
LINE
8
0
10
69
20
14.62
11
69
21
0.62
0
LINE
8
0
10
69
20
19.67
11
83
21
19.67
0
LINE
8
0
10
83
20
19.67
11
83
21
33.67
0
LINE
8
0
10
83
20
33.67
11
69
21
33.67
0
LINE
8
0
10
69
20
33.67
11
69
21
19.67
0
LINE
8
0
10
69
20
38.72
11
83
21
38.72
0
LINE
8
0
10
83
20
38.72
11
83
21
52.72
0
LINE
8
0
10
83
20
52.72
11
69
21
52.72
0
LINE
8
0
10
69
20
52.72
11
69
21
38.72
0
LINE
8
0
10
69.05
20
-18.43
11
83.05
21
-18.43
0
LINE
8
0
10
83.05
20
-18.43
11
83.05
21
-4.43
0
LINE
8
0
10
83.05
20
-4.43
11
69.05
21
-4.43
0
LINE
8
0
10
69.05
20
-4.43
11
69.05
21
-18.43
0
LINE
8
0
10
50
20
-16.525
11
64
21
-16.525
0
LINE
8
0
10
64
20
-16.525
11
64
21
-2.525
0
LINE
8
0
10
64
20
-2.525
11
50
21
-2.525
0
LINE
8
0
10
50
20
-2.525
11
50
21
-16.525
0
ENDSEC
0
EOF