0
SECTION
2
HEADER
9
$INSUNITS
70
4
0
ENDSEC
0
SECTION
2
TABLES
0
TABLE
2
LTYPE
0
LTYPE
72
65
70
64
2
CONTINUOUS
3
______
73
0
40
0
0
ENDTAB
0
TABLE
2
LAYER
0
ENDTAB
0
ENDSEC
0
SECTION
2
ENTITIES
0
LINE
8
0
10
-9.525
20
-9.525
11
9.525
21
-9.525
0
LINE
8
0
10
-9.525
20
-9.525
11
-9.525
21
47.625
0
LINE
8
0
10
-9.525
20
47.625
11
0
21
47.625
0
LINE
8
0
10
0
20
61.9125
11
72.7615
21
61.9125
0
LINE
8
0
10
85.525
20
-3.31
11
85.525
21
53.1495
0
LINE
8
0
10
52.2375
20
-22.86
11
89.7875
21
-22.86
0
LINE
8
0
10
90.2875
20
-22.36
11
90.2875
21
-4.31
0
LINE
8
0
10
86.025
20
-3.81
11
89.7875
21
-3.81
0
ARC
8
0
10
89.7875
20
-22.36
40
0.5
50
270
51
0
0
ARC
8
0
10
89.7875
20
-4.31
40
0.5
50
0
51
90
0
ARC
8
0
10
86.025
20
-3.31
40
0.5
50
180
51
270
0
LINE
8
0
10
-7
20
-7
11
7
21
-7
0
LINE
8
0
10
7
20
-7
11
7
21
7
0
LINE
8
0
10
7
20
7
11
-7
21
7
0
LINE
8
0
10
-7
20
7
11
-7
21
-7
0
LINE
8
0
10
-7
20
12.05
11
7
21
12.05
0
LINE
8
0
10
7
20
12.05
11
7
21
26.05
0
LINE
8
0
10
7
20
26.05
11
-7
21
26.05
0
LINE
8
0
10
-7
20
26.05
11
-7
21
12.05
0
LINE
8
0
10
-7
20
31.1
11
7
21
31.1
0
LINE
8
0
10
7
20
31.1
11
7
21
45.1
0
LINE
8
0
10
7
20
45.1
11
-7
21
45.1
0
LINE
8
0
10
-7
20
45.1
11
-7
21
31.1
0
LINE
8
0
10
12
20
2.525
11
26
21
2.525
0
LINE
8
0
10
26
20
2.525
11
26
21
16.525
0
LINE
8
0
10
26
20
16.525
11
12
21
16.525
0
LINE
8
0
10
12
20
16.525
11
12
21
2.525
0
LINE
8
0
10
12
20
21.575
11
26
21
21.575
0
LINE
8
0
10
26
20
21.575
11
26
21
35.575
0
LINE
8
0
10
26
20
35.575
11
12
21
35.575
0
LINE
8
0
10
12
20
35.575
11
12
21
21.575
0
LINE
8
0
10
12
20
40.625
11
26
21
40.625
0
LINE
8
0
10
26
20
40.625
11
26
21
54.625
0
LINE
8
0
10
26
20
54.625
11
12
21
54.625
0
LINE
8
0
10
12
20
54.625
11
12
21
40.625
0
LINE
8
0
10
31
20
7.2875
11
45
21
7.2875
0
LINE
8
0
10
45
20
7.2875
11
45
21
21.2875
0
LINE
8
0
10
45
20
21.2875
11
31
21
21.2875
0
LINE
8
0
10
31
20
21.2875
11
31
21
7.2875
0
LINE
8
0
10
31
20
26.3375
11
45
21
26.3375
0
LINE
8
0
10
45
20
26.3375
11
45
21
40.3375
0
LINE
8
0
10
45
20
40.3375
11
31
21
40.3375
0
LINE
8
0
10
31
20
40.3375
11
31
21
26.3375
0
LINE
8
0
10
31
20
45.3875
11
45
21
45.3875
0
LINE
8
0
10
45
20
45.3875
11
45
21
59.3875
0
LINE
8
0
10
45
20
59.3875
11
31
21
59.3875
0
LINE
8
0
10
31
20
59.3875
11
31
21
45.3875
0
LINE
8
0
10
50
20
1.5725
11
64
21
1.5725
0
LINE
8
0
10
64
20
1.5725
11
64
21
15.5725
0
LINE
8
0
10
64
20
15.5725
11
50
21
15.5725
0
LINE
8
0
10
50
20
15.5725
11
50
21
1.5725
0
LINE
8
0
10
50
20
20.6225
11
64
21
20.6225
0
LINE
8
0
10
64
20
20.6225
11
64
21
34.6225
0
LINE
8
0
10
64
20
34.6225
11
50
21
34.6225
0
LINE
8
0
10
50
20
34.6225
11
50
21
20.6225
0
LINE
8
0
10
50
20
39.6725
11
64
21
39.6725
0
LINE
8
0
10
64
20
39.6725
11
64
21
53.6725
0
LINE
8
0
10
64
20
53.6725
11
50
21
53.6725
0
LINE
8
0
10
50
20
53.6725
11
50
21
39.6725
0
LINE
8
0
10
69
20
-1.285
11
83
21
-1.285
0
LINE
8
0
10
83
20
-1.285
11
83
21
12.715
0
LINE
8
0
10
83
20
12.715
11
69
21
12.715
0
LINE
8
0
10
69
20
12.715
11
69
21
-1.285
0
LINE
8
0
10
69
20
17.765
11
83
21
17.765
0
LINE
8
0
10
83
20
17.765
11
83
21
31.765
0
LINE
8
0
10
83
20
31.765
11
69
21
31.765
0
LINE
8
0
10
69
20
31.765
11
69
21
17.765
0
LINE
8
0
10
69
20
36.815
11
83
21
36.815
0
LINE
8
0
10
83
20
36.815
11
83
21
50.815
0
LINE
8
0
10
83
20
50.815
11
69
21
50.815
0
LINE
8
0
10
69
20
50.815
11
69
21
36.815
0
LINE
8
0
10
73.7625
20
-20.335
11
87.7625
21
-20.335
0
LINE
8
0
10
87.7625
20
-20.335
11
87.7625
21
-6.335
0
LINE
8
0
10
87.7625
20
-6.335
11
73.7625
21
-6.335
0
LINE
8
0
10
73.7625
20
-6.335
11
73.7625
21
-20.335
0
LINE
8
0
10
54.7125
20
-20.335
11
68.7125
21
-20.335
0
LINE
8
0
10
68.7125
20
-20.335
11
68.7125
21
-6.335
0
LINE
8
0
10
68.7125
20
-6.335
11
54.7125
21
-6.335
0
LINE
8
0
10
54.7125
20
-6.335
11
54.7125
21
-20.335
0
LINE
8
0
10
9.525
20
-9.525
11
9.475
21
0
0
LINE
8
0
10
9.475
20
0
11
28.525
21
0
0
LINE
8
0
10
28.525
20
0
11
28.475
21
4.7625
0
LINE
8
0
10
28.475
20
4.7625
11
47.525
21
4.7625
0
LINE
8
0
10
47.525
20
4.7625
11
47.525
21
-0.9525
0
LINE
8
0
10
47.525
20
-0.9525
11
52.2375
21
-0.9525
0
LINE
8
0
10
52.2375
20
-0.9525
11
52.2375
21
-22.86
0
LINE
8
0
10
0
20
47.625
11
0
21
61.9125
0
LINE
8
0
10
72.7615
20
53.1495
11
85.525
21
53.1495
0
LINE
8
0
10
72.7615
20
61.9125
11
72.7615
21
53.1495
0
ENDSEC
0
EOF