%TF.GenerationSoftware,KiCad,Pcbnew,7.0.0*%
%TF.CreationDate,2023-04-08T11:50:52+01:00*%
%TF.ProjectId,chips-34,63686970-732d-4333-942e-6b696361645f,v1.0.0*%
%TF.SameCoordinates,Original*%
%TF.FileFunction,Copper,L2,Bot*%
%TF.FilePolarity,Positive*%
%FSLAX46Y46*%
G04 Gerber Fmt 4.6, Leading zero omitted, Abs format (unit mm)*
G04 Created by KiCad (PCBNEW 7.0.0) date 2023-04-08 11:50:52*
%MOMM*%
%LPD*%
G01*
G04 APERTURE LIST*
G04 Aperture macros list*
%AMFreePoly0*
4,1,5,0.125000,-0.500000,-0.125000,-0.500000,-0.125000,0.500000,0.125000,0.500000,0.125000,-0.500000,0.125000,-0.500000,$1*%
%AMFreePoly1*
4,1,6,0.600000,-0.250000,-0.600000,-0.250000,-0.600000,1.000000,0.000000,0.400000,0.600000,1.000000,0.600000,-0.250000,0.600000,-0.250000,$1*%
%AMFreePoly2*
4,1,6,0.600000,0.200000,0.000000,-0.400000,-0.600000,0.200000,-0.600000,0.400000,0.600000,0.400000,0.600000,0.200000,0.600000,0.200000,$1*%
%AMFreePoly3*
4,1,49,0.004652,0.123753,0.008918,0.124682,0.028635,0.117327,0.062500,0.108253,0.068172,0.102580,0.074910,0.100068,0.087486,0.083266,0.108253,0.062500,0.111163,0.051639,0.117119,0.043683,0.118510,0.024217,0.125000,0.000000,0.121245,-0.014013,0.122144,-0.026571,0.113772,-0.041901,0.108253,-0.062500,0.095633,-0.075119,0.088389,-0.088388,-0.641000,-0.817776,-0.641000,-4.770224,
0.088389,-5.499612,0.109711,-5.528094,0.124682,-5.596918,0.100068,-5.662910,0.043683,-5.705119,-0.026571,-5.710144,-0.088388,-5.676389,-0.854388,-4.910388,-0.867764,-4.892519,-0.871157,-4.889580,-0.871926,-4.886960,-0.875710,-4.881906,-0.882285,-4.851677,-0.891000,-4.822000,-0.891000,-0.766000,-0.887823,-0.743906,-0.888144,-0.739429,-0.886835,-0.737032,-0.885937,-0.730783,-0.869209,-0.704755,
-0.854388,-0.677612,-0.088388,0.088389,-0.064427,0.106325,-0.062500,0.108253,-0.061491,0.108523,-0.059906,0.109711,-0.044779,0.113001,0.000000,0.125000,0.004652,0.123753,0.004652,0.123753,$1*%
G04 Aperture macros list end*
%TA.AperFunction,ComponentPad*%
%ADD10O,1.200000X1.700000*%
%TD*%
%TA.AperFunction,ComponentPad*%
%ADD11R,1.200000X1.700000*%
%TD*%
%TA.AperFunction,ComponentPad*%
%ADD12C,1.600000*%
%TD*%
%TA.AperFunction,ComponentPad*%
%ADD13R,1.600000X1.600000*%
%TD*%
%TA.AperFunction,SMDPad,CuDef*%
%ADD14FreePoly0,180.000000*%
%TD*%
%TA.AperFunction,SMDPad,CuDef*%
%ADD15FreePoly1,180.000000*%
%TD*%
%TA.AperFunction,SMDPad,CuDef*%
%ADD16FreePoly2,180.000000*%
%TD*%
%TA.AperFunction,SMDPad,CuDef*%
%ADD17FreePoly0,0.000000*%
%TD*%
%TA.AperFunction,SMDPad,CuDef*%
%ADD18FreePoly2,0.000000*%
%TD*%
%TA.AperFunction,SMDPad,CuDef*%
%ADD19FreePoly1,0.000000*%
%TD*%
%TA.AperFunction,SMDPad,CuDef*%
%ADD20FreePoly3,180.000000*%
%TD*%
%TA.AperFunction,SMDPad,CuDef*%
%ADD21FreePoly3,0.000000*%
%TD*%
%TA.AperFunction,ComponentPad*%
%ADD22C,0.800000*%
%TD*%
%TA.AperFunction,WasherPad*%
%ADD23C,1.000000*%
%TD*%
%TA.AperFunction,SMDPad,CuDef*%
%ADD24R,0.900000X1.250000*%
%TD*%
%TA.AperFunction,SMDPad,CuDef*%
%ADD25R,0.900000X0.900000*%
%TD*%
%TA.AperFunction,SMDPad,CuDef*%
%ADD26R,1.800000X1.100000*%
%TD*%
%TA.AperFunction,ComponentPad*%
%ADD27C,4.000000*%
%TD*%
%TA.AperFunction,ComponentPad*%
%ADD28C,0.600000*%
%TD*%
%TA.AperFunction,SMDPad,CuDef*%
%ADD29R,2.550000X2.500000*%
%TD*%
%TA.AperFunction,ComponentPad*%
%ADD30O,2.200000X1.600000*%
%TD*%
%TA.AperFunction,ComponentPad*%
%ADD31O,1.600000X2.200000*%
%TD*%
%TA.AperFunction,Conductor*%
%ADD32C,0.250000*%
%TD*%
G04 APERTURE END LIST*
D10*
%TO.P,JST2,2*%
%TO.N,GND*%
X16999999Y-1774999D03*
D11*
%TO.P,JST2,1*%
%TO.N,BAT*%
X14999999Y-1774999D03*
%TD*%
%TO.P,JST1,1*%
%TO.N,BAT*%
X12199999Y-4174999D03*
D10*
%TO.P,JST1,2*%
%TO.N,GND*%
X14199999Y-4174999D03*
%TD*%
D12*
%TO.P,MCU1,*%
%TO.N,*%
X22030000Y-21526500D03*
X24570000Y-21526500D03*
X27110000Y-21526500D03*
X29650000Y-21526500D03*
X32190000Y-21526500D03*
X34730000Y-21526500D03*
X37270000Y-21526500D03*
X39810000Y-21526500D03*
X42350000Y-21526500D03*
X44890000Y-21526500D03*
X47430000Y-21526500D03*
X49970000Y-21526500D03*
X49970000Y-6286500D03*
X47430000Y-6286500D03*
X44890000Y-6286500D03*
X42350000Y-6286500D03*
X39810000Y-6286500D03*
X37270000Y-6286500D03*
X34730000Y-6286500D03*
X32190000Y-6286500D03*
X29650000Y-6286500D03*
X27110000Y-6286500D03*
X24570000Y-6286500D03*
X22030000Y-6286500D03*
D13*
X22029999Y-6286499D03*
D14*
X22030000Y-20256500D03*
D15*
%TO.P,MCU1,1*%
%TO.N,RAW*%
X22030000Y-18732500D03*
D16*
%TO.P,MCU1,*%
%TO.N,*%
X22030000Y-19748500D03*
D14*
X24570000Y-20256500D03*
D16*
X24570000Y-19748500D03*
D15*
%TO.P,MCU1,2*%
%TO.N,GND*%
X24570000Y-18732500D03*
D14*
%TO.P,MCU1,*%
%TO.N,*%
X27110000Y-20256500D03*
D16*
X27110000Y-19748500D03*
D15*
%TO.P,MCU1,3*%
%TO.N,RST*%
X27110000Y-18732500D03*
D14*
%TO.P,MCU1,*%
%TO.N,*%
X29650000Y-20256500D03*
D16*
X29650000Y-19748500D03*
D15*
%TO.P,MCU1,4*%
%TO.N,VCC*%
X29650000Y-18732500D03*
D14*
%TO.P,MCU1,*%
%TO.N,*%
X32190000Y-20256500D03*
D16*
X32190000Y-19748500D03*
D15*
%TO.P,MCU1,5*%
%TO.N,matrix_pinky_bottom*%
X32190000Y-18732500D03*
D14*
%TO.P,MCU1,*%
%TO.N,*%
X34730000Y-20256500D03*
D16*
X34730000Y-19748500D03*
D15*
%TO.P,MCU1,6*%
%TO.N,matrix_ring_home*%
X34730000Y-18732500D03*
D14*
%TO.P,MCU1,*%
%TO.N,*%
X37270000Y-20256500D03*
D16*
X37270000Y-19748500D03*
D15*
%TO.P,MCU1,7*%
%TO.N,matrix_middle_top*%
X37270000Y-18732500D03*
D14*
%TO.P,MCU1,*%
%TO.N,*%
X39810000Y-20256500D03*
D16*
X39810000Y-19748500D03*
D15*
%TO.P,MCU1,8*%
%TO.N,matrix_middle_bottom*%
X39810000Y-18732500D03*
D14*
%TO.P,MCU1,*%
%TO.N,*%
X42350000Y-20256500D03*
D16*
X42350000Y-19748500D03*
D15*
%TO.P,MCU1,9*%
%TO.N,matrix_index_home*%
X42350000Y-18732500D03*
D14*
%TO.P,MCU1,*%
%TO.N,*%
X44890000Y-20256500D03*
D16*
X44890000Y-19748500D03*
D15*
%TO.P,MCU1,10*%
%TO.N,matrix_inner_top*%
X44890000Y-18732500D03*
D14*
%TO.P,MCU1,*%
%TO.N,*%
X47430000Y-20256500D03*
D16*
X47430000Y-19748500D03*
D15*
%TO.P,MCU1,11*%
%TO.N,matrix_inner_bottom*%
X47430000Y-18732500D03*
D14*
%TO.P,MCU1,*%
%TO.N,*%
X49970000Y-20256500D03*
D16*
X49970000Y-19748500D03*
D15*
%TO.P,MCU1,12*%
%TO.N,thumb_squeeze*%
X49970000Y-18732500D03*
D17*
%TO.P,MCU1,*%
%TO.N,*%
X22030000Y-7556500D03*
D18*
X22030000Y-8064500D03*
D19*
%TO.P,MCU1,24*%
%TO.N,P1*%
X22030000Y-9080500D03*
%TO.P,MCU1,23*%
%TO.N,matrix_pinky_top*%
X24570000Y-9080500D03*
D17*
%TO.P,MCU1,*%
%TO.N,*%
X24570000Y-7556500D03*
D18*
X24570000Y-8064500D03*
D19*
%TO.P,MCU1,22*%
%TO.N,GND*%
X27110000Y-9080500D03*
D17*
%TO.P,MCU1,*%
%TO.N,*%
X27110000Y-7556500D03*
D18*
X27110000Y-8064500D03*
D19*
%TO.P,MCU1,21*%
%TO.N,GND*%
X29650000Y-9080500D03*
D17*
%TO.P,MCU1,*%
%TO.N,*%
X29650000Y-7556500D03*
D18*
X29650000Y-8064500D03*
D19*
%TO.P,MCU1,20*%
%TO.N,matrix_pinky_home*%
X32190000Y-9080500D03*
D17*
%TO.P,MCU1,*%
%TO.N,*%
X32190000Y-7556500D03*
D18*
X32190000Y-8064500D03*
D19*
%TO.P,MCU1,19*%
%TO.N,matrix_ring_top*%
X34730000Y-9080500D03*
D17*
%TO.P,MCU1,*%
%TO.N,*%
X34730000Y-7556500D03*
D18*
X34730000Y-8064500D03*
D19*
%TO.P,MCU1,18*%
%TO.N,matrix_ring_bottom*%
X37270000Y-9080500D03*
D17*
%TO.P,MCU1,*%
%TO.N,*%
X37270000Y-7556500D03*
D18*
X37270000Y-8064500D03*
D19*
%TO.P,MCU1,17*%
%TO.N,matrix_middle_home*%
X39810000Y-9080500D03*
D17*
%TO.P,MCU1,*%
%TO.N,*%
X39810000Y-7556500D03*
D18*
X39810000Y-8064500D03*
D19*
%TO.P,MCU1,16*%
%TO.N,matrix_index_top*%
X42350000Y-9080500D03*
D17*
%TO.P,MCU1,*%
%TO.N,*%
X42350000Y-7556500D03*
D18*
X42350000Y-8064500D03*
D19*
%TO.P,MCU1,15*%
%TO.N,matrix_index_bottom*%
X44890000Y-9080500D03*
D17*
%TO.P,MCU1,*%
%TO.N,*%
X44890000Y-7556500D03*
D18*
X44890000Y-8064500D03*
D19*
%TO.P,MCU1,14*%
%TO.N,matrix_inner_home*%
X47430000Y-9080500D03*
D17*
%TO.P,MCU1,*%
%TO.N,*%
X47430000Y-7556500D03*
D18*
X47430000Y-8064500D03*
D19*
%TO.P,MCU1,13*%
%TO.N,thumb_resting*%
X49970000Y-9080500D03*
D17*
%TO.P,MCU1,*%
%TO.N,*%
X49970000Y-7556500D03*
D18*
X49970000Y-8064500D03*
D20*
%TO.P,MCU1,23*%
%TO.N,matrix_pinky_top*%
X24570000Y-14668500D03*
D21*
%TO.P,MCU1,2*%
%TO.N,GND*%
X24570000Y-13144500D03*
D22*
X24570000Y-13144500D03*
%TO.P,MCU1,23*%
%TO.N,matrix_pinky_top*%
X24570000Y-14668500D03*
%TO.P,MCU1,24*%
%TO.N,P1*%
X22030000Y-14668500D03*
%TO.P,MCU1,1*%
%TO.N,RAW*%
X22030000Y-13144500D03*
D20*
%TO.P,MCU1,24*%
%TO.N,P1*%
X22030000Y-14668500D03*
D21*
%TO.P,MCU1,1*%
%TO.N,RAW*%
X22030000Y-13144500D03*
D22*
%TO.P,MCU1,22*%
%TO.N,GND*%
X27110000Y-14668500D03*
%TO.P,MCU1,3*%
%TO.N,RST*%
X27110000Y-13144500D03*
D20*
%TO.P,MCU1,22*%
%TO.N,GND*%
X27110000Y-14668500D03*
D21*
%TO.P,MCU1,3*%
%TO.N,RST*%
X27110000Y-13144500D03*
D22*
%TO.P,MCU1,21*%
%TO.N,GND*%
X29650000Y-14668500D03*
%TO.P,MCU1,4*%
%TO.N,VCC*%
X29650000Y-13144500D03*
D20*
%TO.P,MCU1,21*%
%TO.N,GND*%
X29650000Y-14668500D03*
D21*
%TO.P,MCU1,4*%
%TO.N,VCC*%
X29650000Y-13144500D03*
D22*
%TO.P,MCU1,20*%
%TO.N,matrix_pinky_home*%
X32190000Y-14668500D03*
%TO.P,MCU1,5*%
%TO.N,matrix_pinky_bottom*%
X32190000Y-13144500D03*
D20*
%TO.P,MCU1,20*%
%TO.N,matrix_pinky_home*%
X32190000Y-14668500D03*
D21*
%TO.P,MCU1,5*%
%TO.N,matrix_pinky_bottom*%
X32190000Y-13144500D03*
D22*
%TO.P,MCU1,19*%
%TO.N,matrix_ring_top*%
X34730000Y-14668500D03*
%TO.P,MCU1,6*%
%TO.N,matrix_ring_home*%
X34730000Y-13144500D03*
D20*
%TO.P,MCU1,19*%
%TO.N,matrix_ring_top*%
X34730000Y-14668500D03*
D21*
%TO.P,MCU1,6*%
%TO.N,matrix_ring_home*%
X34730000Y-13144500D03*
D22*
%TO.P,MCU1,18*%
%TO.N,matrix_ring_bottom*%
X37270000Y-14668500D03*
%TO.P,MCU1,7*%
%TO.N,matrix_middle_top*%
X37270000Y-13144500D03*
D20*
%TO.P,MCU1,18*%
%TO.N,matrix_ring_bottom*%
X37270000Y-14668500D03*
D21*
%TO.P,MCU1,7*%
%TO.N,matrix_middle_top*%
X37270000Y-13144500D03*
D22*
%TO.P,MCU1,17*%
%TO.N,matrix_middle_home*%
X39810000Y-14668500D03*
%TO.P,MCU1,8*%
%TO.N,matrix_middle_bottom*%
X39810000Y-13144500D03*
D20*
%TO.P,MCU1,17*%
%TO.N,matrix_middle_home*%
X39810000Y-14668500D03*
D21*
%TO.P,MCU1,8*%
%TO.N,matrix_middle_bottom*%
X39810000Y-13144500D03*
D22*
%TO.P,MCU1,16*%
%TO.N,matrix_index_top*%
X42350000Y-14668500D03*
%TO.P,MCU1,9*%
%TO.N,matrix_index_home*%
X42350000Y-13144500D03*
D20*
%TO.P,MCU1,16*%
%TO.N,matrix_index_top*%
X42350000Y-14668500D03*
D21*
%TO.P,MCU1,9*%
%TO.N,matrix_index_home*%
X42350000Y-13144500D03*
D22*
%TO.P,MCU1,15*%
%TO.N,matrix_index_bottom*%
X44890000Y-14668500D03*
%TO.P,MCU1,10*%
%TO.N,matrix_inner_top*%
X44890000Y-13144500D03*
D20*
%TO.P,MCU1,15*%
%TO.N,matrix_index_bottom*%
X44890000Y-14668500D03*
D21*
%TO.P,MCU1,10*%
%TO.N,matrix_inner_top*%
X44890000Y-13144500D03*
D22*
%TO.P,MCU1,14*%
%TO.N,matrix_inner_home*%
X47430000Y-14668500D03*
%TO.P,MCU1,11*%
%TO.N,matrix_inner_bottom*%
X47430000Y-13144500D03*
D20*
%TO.P,MCU1,14*%
%TO.N,matrix_inner_home*%
X47430000Y-14668500D03*
D21*
%TO.P,MCU1,11*%
%TO.N,matrix_inner_bottom*%
X47430000Y-13144500D03*
D22*
%TO.P,MCU1,13*%
%TO.N,thumb_resting*%
X49970000Y-14668500D03*
%TO.P,MCU1,12*%
%TO.N,thumb_squeeze*%
X49970000Y-13144500D03*
D20*
%TO.P,MCU1,13*%
%TO.N,thumb_resting*%
X49970000Y-14668500D03*
D21*
%TO.P,MCU1,12*%
%TO.N,thumb_squeeze*%
X49970000Y-13144500D03*
%TD*%
D23*
%TO.P,T2,*%
%TO.N,*%
X12500000Y-20975000D03*
X15500000Y-20975000D03*
D24*
%TO.P,T2,1*%
%TO.N,RAW*%
X16249999Y-18899999D03*
%TO.P,T2,2*%
%TO.N,BAT*%
X13249999Y-18899999D03*
%TO.P,T2,3*%
%TO.N,N/C*%
X11749999Y-18899999D03*
D25*
%TO.P,T2,*%
%TO.N,*%
X10299999Y-22074999D03*
X10299999Y-19874999D03*
X17699999Y-19874999D03*
X17699999Y-22074999D03*
%TD*%
D23*
%TO.P,T1,*%
%TO.N,*%
X15500000Y-20975000D03*
X12500000Y-20975000D03*
%TD*%
D26*
%TO.P,B2,1*%
%TO.N,RST*%
X41099999Y-562499D03*
X34899999Y-562499D03*
%TO.P,B2,2*%
%TO.N,GND*%
X41099999Y3137499D03*
X34899999Y3137499D03*
%TD*%
D27*
%TO.P,,h1*%
%TO.N,N/C*%
X6000000Y58000000D03*
%TD*%
%TO.P,,h2*%
%TO.N,N/C*%
X70000000Y58000000D03*
%TD*%
D28*
%TO.P,,1*%
%TO.N,RST*%
X25790000Y-2150000D03*
%TD*%
D29*
%TO.P,S1,1*%
%TO.N,GND*%
X-7084999Y2539999D03*
%TO.P,S1,2*%
%TO.N,matrix_pinky_bottom*%
X5841999Y5079999D03*
%TD*%
%TO.P,S2,1*%
%TO.N,GND*%
X-7084999Y21589999D03*
%TO.P,S2,2*%
%TO.N,matrix_pinky_home*%
X5841999Y24129999D03*
%TD*%
%TO.P,S3,1*%
%TO.N,GND*%
X-7084999Y40639999D03*
%TO.P,S3,2*%
%TO.N,matrix_pinky_top*%
X5841999Y43179999D03*
%TD*%
%TO.P,S4,1*%
%TO.N,GND*%
X11914999Y12064999D03*
%TO.P,S4,2*%
%TO.N,matrix_ring_bottom*%
X24841999Y14604999D03*
%TD*%
%TO.P,S5,1*%
%TO.N,GND*%
X11914999Y31114999D03*
%TO.P,S5,2*%
%TO.N,matrix_ring_home*%
X24841999Y33654999D03*
%TD*%
%TO.P,S6,1*%
%TO.N,GND*%
X11914999Y50164999D03*
%TO.P,S6,2*%
%TO.N,matrix_ring_top*%
X24841999Y52704999D03*
%TD*%
%TO.P,S7,1*%
%TO.N,GND*%
X30914999Y16827499D03*
%TO.P,S7,2*%
%TO.N,matrix_middle_bottom*%
X43841999Y19367499D03*
%TD*%
%TO.P,S8,1*%
%TO.N,GND*%
X30914999Y35877499D03*
%TO.P,S8,2*%
%TO.N,matrix_middle_home*%
X43841999Y38417499D03*
%TD*%
%TO.P,S9,1*%
%TO.N,GND*%
X30914999Y54927499D03*
%TO.P,S9,2*%
%TO.N,matrix_middle_top*%
X43841999Y57467499D03*
%TD*%
%TO.P,S10,1*%
%TO.N,GND*%
X49914999Y11112499D03*
%TO.P,S10,2*%
%TO.N,matrix_index_bottom*%
X62841999Y13652499D03*
%TD*%
%TO.P,S11,1*%
%TO.N,GND*%
X49914999Y30162499D03*
%TO.P,S11,2*%
%TO.N,matrix_index_home*%
X62841999Y32702499D03*
%TD*%
%TO.P,S12,1*%
%TO.N,GND*%
X49914999Y49212499D03*
%TO.P,S12,2*%
%TO.N,matrix_index_top*%
X62841999Y51752499D03*
%TD*%
%TO.P,S13,1*%
%TO.N,GND*%
X68914999Y8254999D03*
%TO.P,S13,2*%
%TO.N,matrix_inner_bottom*%
X81841999Y10794999D03*
%TD*%
%TO.P,S14,1*%
%TO.N,GND*%
X68914999Y27304999D03*
%TO.P,S14,2*%
%TO.N,matrix_inner_home*%
X81841999Y29844999D03*
%TD*%
%TO.P,S15,1*%
%TO.N,GND*%
X68914999Y46354999D03*
%TO.P,S15,2*%
%TO.N,matrix_inner_top*%
X81841999Y48894999D03*
%TD*%
%TO.P,S16,1*%
%TO.N,GND*%
X73677499Y-10794999D03*
%TO.P,S16,2*%
%TO.N,thumb_resting*%
X86604499Y-8254999D03*
%TD*%
%TO.P,S17,1*%
%TO.N,GND*%
X54627499Y-10794999D03*
%TO.P,S17,2*%
%TO.N,thumb_squeeze*%
X67554499Y-8254999D03*
%TD*%
D28*
%TO.P,REF\u002A\u002A,1*%
%TO.N,matrix_pinky_bottom*%
X-5700000Y5000000D03*
%TD*%
%TO.P,REF\u002A\u002A,1*%
%TO.N,matrix_pinky_home*%
X-5700000Y24050000D03*
%TD*%
%TO.P,REF\u002A\u002A,1*%
%TO.N,matrix_pinky_top*%
X-5700000Y43100000D03*
%TD*%
%TO.P,REF\u002A\u002A,1*%
%TO.N,matrix_ring_bottom*%
X13300000Y14525000D03*
%TD*%
%TO.P,REF\u002A\u002A,1*%
%TO.N,matrix_ring_home*%
X13300000Y33575000D03*
%TD*%
%TO.P,REF\u002A\u002A,1*%
%TO.N,matrix_ring_top*%
X13300000Y52625000D03*
%TD*%
%TO.P,REF\u002A\u002A,1*%
%TO.N,matrix_middle_bottom*%
X32300000Y19287500D03*
%TD*%
%TO.P,REF\u002A\u002A,1*%
%TO.N,matrix_middle_home*%
X32300000Y38337500D03*
%TD*%
%TO.P,REF\u002A\u002A,1*%
%TO.N,matrix_middle_top*%
X32300000Y57387500D03*
%TD*%
%TO.P,REF\u002A\u002A,1*%
%TO.N,matrix_index_bottom*%
X51300000Y13572500D03*
%TD*%
%TO.P,REF\u002A\u002A,1*%
%TO.N,matrix_index_home*%
X51300000Y32622500D03*
%TD*%
%TO.P,REF\u002A\u002A,1*%
%TO.N,matrix_index_top*%
X51300000Y51672500D03*
%TD*%
%TO.P,REF\u002A\u002A,1*%
%TO.N,matrix_inner_bottom*%
X70300000Y10715000D03*
%TD*%
%TO.P,REF\u002A\u002A,1*%
%TO.N,matrix_inner_home*%
X70300000Y29765000D03*
%TD*%
%TO.P,REF\u002A\u002A,1*%
%TO.N,matrix_inner_top*%
X70300000Y48815000D03*
%TD*%
%TO.P,REF\u002A\u002A,1*%
%TO.N,thumb_resting*%
X75062500Y-8335000D03*
%TD*%
%TO.P,REF\u002A\u002A,1*%
%TO.N,thumb_squeeze*%
X56012500Y-8335000D03*
%TD*%
%TO.P,REF\u002A\u002A,1*%
%TO.N,GND*%
X6900000Y2800000D03*
%TD*%
%TO.P,REF\u002A\u002A,1*%
%TO.N,GND*%
X6900000Y21850000D03*
%TD*%
%TO.P,REF\u002A\u002A,1*%
%TO.N,GND*%
X6900000Y40900000D03*
%TD*%
%TO.P,REF\u002A\u002A,1*%
%TO.N,GND*%
X25900000Y12325000D03*
%TD*%
%TO.P,REF\u002A\u002A,1*%
%TO.N,GND*%
X25900000Y31375000D03*
%TD*%
%TO.P,REF\u002A\u002A,1*%
%TO.N,GND*%
X25900000Y50425000D03*
%TD*%
%TO.P,REF\u002A\u002A,1*%
%TO.N,GND*%
X44900000Y17087500D03*
%TD*%
%TO.P,REF\u002A\u002A,1*%
%TO.N,GND*%
X44900000Y36137500D03*
%TD*%
%TO.P,REF\u002A\u002A,1*%
%TO.N,GND*%
X44900000Y55187500D03*
%TD*%
%TO.P,REF\u002A\u002A,1*%
%TO.N,GND*%
X63900000Y11372500D03*
%TD*%
%TO.P,REF\u002A\u002A,1*%
%TO.N,GND*%
X63900000Y30422500D03*
%TD*%
%TO.P,REF\u002A\u002A,1*%
%TO.N,GND*%
X63900000Y49472500D03*
%TD*%
%TO.P,REF\u002A\u002A,1*%
%TO.N,GND*%
X82900000Y8515000D03*
%TD*%
%TO.P,REF\u002A\u002A,1*%
%TO.N,GND*%
X82900000Y27565000D03*
%TD*%
%TO.P,REF\u002A\u002A,1*%
%TO.N,GND*%
X82900000Y46615000D03*
%TD*%
%TO.P,REF\u002A\u002A,1*%
%TO.N,GND*%
X87662500Y-10535000D03*
%TD*%
%TO.P,REF\u002A\u002A,1*%
%TO.N,GND*%
X68612500Y-10535000D03*
%TD*%
D30*
%TO.P,TRRS1,1*%
%TO.N,GND*%
X73999999Y58714999D03*
%TO.P,TRRS1,2*%
X75099999Y54114999D03*
%TO.P,TRRS1,3*%
%TO.N,P1*%
X79099999Y54114999D03*
%TO.P,TRRS1,4*%
%TO.N,VCC*%
X82099999Y54114999D03*
%TO.P,TRRS1,1*%
%TO.N,GND*%
X73999999Y56414999D03*
%TO.P,TRRS1,2*%
X75099999Y61014999D03*
%TO.P,TRRS1,3*%
%TO.N,P1*%
X79099999Y61014999D03*
%TO.P,TRRS1,4*%
%TO.N,VCC*%
X82099999Y61014999D03*
%TD*%
D31*
%TO.P,TRRS2,1*%
%TO.N,GND*%
X-5899999Y50499999D03*
%TO.P,TRRS2,2*%
X-1299999Y51599999D03*
%TO.P,TRRS2,3*%
%TO.N,P1*%
X-1299999Y55599999D03*
%TO.P,TRRS2,4*%
%TO.N,VCC*%
X-1299999Y58599999D03*
%TO.P,TRRS2,1*%
%TO.N,GND*%
X-3599999Y50499999D03*
%TO.P,TRRS2,2*%
X-8199999Y51599999D03*
%TO.P,TRRS2,3*%
%TO.N,P1*%
X-8199999Y55599999D03*
%TO.P,TRRS2,4*%
%TO.N,VCC*%
X-8199999Y58599999D03*
%TD*%
D28*
%TO.P,REF\u002A\u002A,1*%
%TO.N,RST*%
X38000000Y-3212500D03*
%TD*%
%TO.P,REF\u002A\u002A,1*%
%TO.N,GND*%
X38000000Y5787500D03*
%TD*%
%TO.P,REF\u002A\u002A,1*%
%TO.N,RAW*%
X15000000Y-16975000D03*
%TD*%
%TO.P,REF\u002A\u002A,1*%
%TO.N,BAT*%
X13000000Y-16975000D03*
%TD*%
D32*
%TO.N,GND*%
X10346396Y58870000D02*
X10346396Y56593604D01*
X-1765990Y60025000D02*
X-834010Y60025000D01*
X8441396Y60775000D02*
X10346396Y58870000D01*
X-2540000Y54190000D02*
X-2540000Y59250990D01*
X25213604Y56330000D02*
X10610000Y56330000D01*
X4850557Y60775000D02*
X8441396Y60775000D01*
X-2540000Y59250990D02*
X-1765990Y60025000D01*
X-1300000Y52950000D02*
X-2540000Y54190000D01*
X10346396Y56593604D02*
X10610000Y56330000D01*
X-834010Y60025000D02*
X140990Y59050000D01*
X-1300000Y51600000D02*
X-1300000Y52950000D01*
X3125557Y59050000D02*
X4850557Y60775000D01*
X140990Y59050000D02*
X3125557Y59050000D01*
%TO.N,VCC*%
X9896396Y58683604D02*
X9896396Y56143604D01*
X8255000Y60325000D02*
X9896396Y58683604D01*
X5036953Y60325000D02*
X8255000Y60325000D01*
X4105977Y59394024D02*
X5036953Y60325000D01*
X-1300000Y58600000D02*
X3311953Y58600000D01*
X9896396Y56143604D02*
X10160000Y55880000D01*
X3311953Y58600000D02*
X4105977Y59394024D01*
%TO.N,GND*%
X45906396Y61410000D02*
X30293604Y61410000D01*
X66226396Y56330000D02*
X50986396Y56330000D01*
X69116396Y53440000D02*
X66226396Y56330000D01*
X30293604Y61410000D02*
X25213604Y56330000D01*
X50986396Y56330000D02*
X45906396Y61410000D01*
X73660000Y53440000D02*
X69116396Y53440000D01*
X75100000Y54115000D02*
X74335000Y54115000D01*
X74335000Y54115000D02*
X73660000Y53440000D01*
X75100000Y54115000D02*
X76225000Y55240000D01*
X76225000Y55240000D02*
X82865990Y55240000D01*
X83525000Y54580990D02*
X83525000Y47240000D01*
X82865990Y55240000D02*
X83525000Y54580990D01*
X83525000Y47240000D02*
X82900000Y46615000D01*
X-7085000Y21590000D02*
X-7085000Y40640000D01*
X-7085000Y2540000D02*
X-7085000Y21590000D01*
%TO.N,matrix_inner_top*%
X50800000Y0D02*
X63500000Y0D01*
X43475000Y-5375000D02*
X48850000Y0D01*
X48850000Y0D02*
X50800000Y0D01*
%TO.N,matrix_inner_bottom*%
X46015000Y-5375000D02*
X50940000Y-450000D01*
X50940000Y-450000D02*
X63686396Y-450000D01*
X63686396Y-450000D02*
X66490000Y2353604D01*
X66490000Y2353604D02*
X66490000Y9005000D01*
X66490000Y9005000D02*
X68200000Y10715000D01*
X68200000Y10715000D02*
X70300000Y10715000D01*
%TO.N,matrix_inner_top*%
X44890000Y-13144500D02*
X44890000Y-10984104D01*
X44890000Y-10984104D02*
X43475000Y-9569104D01*
X43475000Y-9569104D02*
X43475000Y-5375000D01*
X63500000Y0D02*
X66040000Y2540000D01*
X66040000Y2540000D02*
X66040000Y46655000D01*
X66040000Y46655000D02*
X68200000Y48815000D01*
X68200000Y48815000D02*
X70300000Y48815000D01*
%TO.N,matrix_index_home*%
X42350000Y-13144500D02*
X42350000Y-10984104D01*
X42350000Y-10984104D02*
X40935000Y-9569104D01*
X40935000Y-9569104D02*
X40935000Y-4785000D01*
X48260000Y31682500D02*
X49200000Y32622500D01*
X40935000Y-4785000D02*
X48260000Y2540000D01*
X48260000Y2540000D02*
X48260000Y31682500D01*
X49200000Y32622500D02*
X51300000Y32622500D01*
%TO.N,matrix_ring_home*%
X15240000Y900000D02*
X10315000Y5825000D01*
X34730000Y-10984104D02*
X33315000Y-9569104D01*
X19002688Y900000D02*
X15240000Y900000D01*
X10315000Y32690000D02*
X11200000Y33575000D01*
X11200000Y33575000D02*
X13300000Y33575000D01*
X23657740Y-3755052D02*
X19002688Y900000D01*
X34730000Y-13144500D02*
X34730000Y-10984104D01*
X28762792Y-4630000D02*
X27887844Y-3755052D01*
X10315000Y5825000D02*
X10315000Y32690000D01*
X30666396Y-4630000D02*
X28762792Y-4630000D01*
X31197896Y-5161500D02*
X30666396Y-4630000D01*
X33315000Y-5375000D02*
X33101500Y-5161500D01*
X33315000Y-9569104D02*
X33315000Y-5375000D01*
X27887844Y-3755052D02*
X23657740Y-3755052D01*
X33101500Y-5161500D02*
X31197896Y-5161500D01*
%TO.N,matrix_middle_top*%
X27490000Y1070280D02*
X27490000Y54677500D01*
X30798198Y-4125406D02*
X28894594Y-4125406D01*
X37270000Y-13144500D02*
X35946000Y-11820500D01*
X31384292Y-4711500D02*
X30798198Y-4125406D01*
X24715000Y-2806448D02*
X24715000Y-1704720D01*
X28074240Y-3305052D02*
X25213604Y-3305052D01*
X35191500Y-4711500D02*
X31384292Y-4711500D01*
X25213604Y-3305052D02*
X24715000Y-2806448D01*
X30200000Y57387500D02*
X32300000Y57387500D01*
X35946000Y-5466000D02*
X35191500Y-4711500D01*
X24715000Y-1704720D02*
X27490000Y1070280D01*
X28894594Y-4125406D02*
X28074240Y-3305052D01*
X27490000Y54677500D02*
X30200000Y57387500D01*
X35946000Y-11820500D02*
X35946000Y-5466000D01*
%TO.N,matrix_middle_bottom*%
X28260636Y-2855052D02*
X25400000Y-2855052D01*
X29080990Y-3675406D02*
X28260636Y-2855052D01*
X25165000Y-2620052D02*
X25165000Y-1891116D01*
X30984594Y-3675406D02*
X29080990Y-3675406D01*
X31570688Y-4261500D02*
X30984594Y-3675406D01*
X36196396Y-5080000D02*
X35377896Y-4261500D01*
X38100000Y-5080000D02*
X36196396Y-5080000D01*
X35377896Y-4261500D02*
X31570688Y-4261500D01*
X25400000Y-2855052D02*
X25165000Y-2620052D01*
X38395000Y-5375000D02*
X38100000Y-5080000D01*
X30200000Y19287500D02*
X32300000Y19287500D01*
X39810000Y-10984104D02*
X38395000Y-9569104D01*
X38395000Y-9569104D02*
X38395000Y-5375000D01*
X39810000Y-13144500D02*
X39810000Y-10984104D01*
X25165000Y-1891116D02*
X27940000Y883884D01*
X27940000Y883884D02*
X27940000Y17027500D01*
X27940000Y17027500D02*
X30200000Y19287500D01*
%TO.N,matrix_pinky_bottom*%
X32190000Y-13144500D02*
X32190000Y-10984104D01*
X30775000Y-9569104D02*
X30775000Y-5375000D01*
X30775000Y-5375000D02*
X30480000Y-5080000D01*
X32190000Y-10984104D02*
X30775000Y-9569104D01*
X23471344Y-4205052D02*
X18816292Y450000D01*
X30480000Y-5080000D02*
X28576396Y-5080000D01*
X27701448Y-4205052D02*
X23471344Y-4205052D01*
X28576396Y-5080000D02*
X27701448Y-4205052D01*
X18816292Y450000D02*
X15053604Y450000D01*
X10423604Y5080000D02*
X5842000Y5080000D01*
X15053604Y450000D02*
X10423604Y5080000D01*
%TO.N,RST*%
X25790000Y-2150000D02*
X27377500Y-562500D01*
X27377500Y-562500D02*
X34900000Y-562500D01*
%TO.N,matrix_inner_bottom*%
X46015000Y-9569104D02*
X46015000Y-5375000D01*
X47430000Y-10984104D02*
X46015000Y-9569104D01*
X47430000Y-13144500D02*
X47430000Y-10984104D01*
%TO.N,VCC*%
X-9325000Y-5080000D02*
X-9325000Y45720000D01*
X28326000Y-5466000D02*
X27515052Y-4655052D01*
X14275000Y0D02*
X6655000Y-7620000D01*
X20744948Y-2115052D02*
X18629896Y0D01*
X18629896Y0D02*
X15240000Y0D01*
X-9325000Y-5915000D02*
X-9325000Y-5080000D01*
X-7620000Y-7620000D02*
X-9325000Y-5915000D01*
X28326000Y-11820500D02*
X28326000Y-5466000D01*
X15240000Y0D02*
X14275000Y0D01*
X-9325000Y45720000D02*
X0Y45720000D01*
X5080000Y-7620000D02*
X-7620000Y-7620000D01*
X0Y45720000D02*
X10160000Y55880000D01*
X21169896Y-2540000D02*
X20744948Y-2115052D01*
X27515052Y-4655052D02*
X23284948Y-4655052D01*
X29650000Y-13144500D02*
X28326000Y-11820500D01*
X6655000Y-7620000D02*
X5080000Y-7620000D01*
X23284948Y-4655052D02*
X21169896Y-2540000D01*
%TO.N,GND*%
X24570000Y-13144500D02*
X23445000Y-12019500D01*
X23445000Y-12019500D02*
X23445000Y-5451500D01*
X23445000Y-5451500D02*
X19768500Y-1775000D01*
X19768500Y-1775000D02*
X17000000Y-1775000D01*
%TO.N,VCC*%
X50800000Y55880000D02*
X66040000Y55880000D01*
X30480000Y60960000D02*
X45720000Y60960000D01*
X10160000Y55880000D02*
X25400000Y55880000D01*
X45720000Y60960000D02*
X50800000Y55880000D01*
X25400000Y55880000D02*
X30480000Y60960000D01*
X66040000Y55880000D02*
X68930000Y52990000D01*
X68930000Y52990000D02*
X80975000Y52990000D01*
X80975000Y52990000D02*
X82100000Y54115000D01*
%TO.N,RAW*%
X22030000Y-13144500D02*
X18199500Y-16975000D01*
X18199500Y-16975000D02*
X15000000Y-16975000D01*
%TO.N,GND*%
X17000000Y-1775000D02*
X14600000Y-4175000D01*
X14600000Y-4175000D02*
X14200000Y-4175000D01*
%TO.N,BAT*%
X12200000Y-4175000D02*
X12200000Y-16175000D01*
X12200000Y-16175000D02*
X13000000Y-16975000D01*
X15000000Y-1775000D02*
X14600000Y-1775000D01*
X14600000Y-1775000D02*
X12200000Y-4175000D01*
%TO.N,RAW*%
X16250000Y-18900000D02*
X16250000Y-18225000D01*
X16250000Y-18225000D02*
X15000000Y-16975000D01*
%TO.N,BAT*%
X13250000Y-18900000D02*
X13250000Y-17225000D01*
X13250000Y-17225000D02*
X13000000Y-16975000D01*
%TO.N,RST*%
X38000000Y-3212500D02*
X38450000Y-3212500D01*
X38450000Y-3212500D02*
X41100000Y-562500D01*
X38000000Y-3212500D02*
X37550000Y-3212500D01*
X37550000Y-3212500D02*
X34900000Y-562500D01*
%TO.N,GND*%
X38000000Y5787500D02*
X38450000Y5787500D01*
X38450000Y5787500D02*
X41100000Y3137500D01*
X38000000Y5787500D02*
X37550000Y5787500D01*
X37550000Y5787500D02*
X34900000Y3137500D01*
X-3600000Y50500000D02*
X-5900000Y50500000D01*
X-1300000Y51600000D02*
X-2500000Y51600000D01*
X-2500000Y51600000D02*
X-3600000Y50500000D01*
X-8200000Y51600000D02*
X-7000000Y51600000D01*
X-7000000Y51600000D02*
X-5900000Y50500000D01*
X75100000Y61015000D02*
X75100000Y59815000D01*
X75100000Y59815000D02*
X74000000Y58715000D01*
X74000000Y56415000D02*
X74000000Y58715000D01*
X75100000Y54115000D02*
X75100000Y55315000D01*
X75100000Y55315000D02*
X74000000Y56415000D01*
X49915000Y30162500D02*
X49915000Y27893816D01*
X49915000Y27893816D02*
X52555216Y25253600D01*
X61444784Y25253600D02*
X63900000Y27708816D01*
X52555216Y25253600D02*
X61444784Y25253600D01*
X63900000Y27708816D02*
X63900000Y30422500D01*
%TO.N,matrix_index_home*%
X62842000Y32702500D02*
X60967000Y34577500D01*
X60967000Y34577500D02*
X53255000Y34577500D01*
X53255000Y34577500D02*
X51300000Y32622500D01*
%TO.N,GND*%
X49915000Y11112500D02*
X49915000Y8843816D01*
X62083600Y6203600D02*
X63900000Y8020000D01*
X49915000Y8843816D02*
X52555216Y6203600D01*
X52555216Y6203600D02*
X62083600Y6203600D01*
X63900000Y8020000D02*
X63900000Y11372500D01*
%TO.N,matrix_index_bottom*%
X62842000Y13652500D02*
X60967000Y15527500D01*
X60967000Y15527500D02*
X53255000Y15527500D01*
X53255000Y15527500D02*
X51300000Y13572500D01*
%TO.N,GND*%
X54627500Y-10795000D02*
X54627500Y-13063684D01*
X66157284Y-15703900D02*
X68612500Y-13248684D01*
X54627500Y-13063684D02*
X57267716Y-15703900D01*
X57267716Y-15703900D02*
X66157284Y-15703900D01*
X68612500Y-13248684D02*
X68612500Y-10535000D01*
%TO.N,thumb_squeeze*%
X67554500Y-8255000D02*
X65679500Y-6380000D01*
X65679500Y-6380000D02*
X57967500Y-6380000D01*
X57967500Y-6380000D02*
X56012500Y-8335000D01*
%TO.N,GND*%
X73677500Y-10795000D02*
X73677500Y-13063684D01*
X73677500Y-13063684D02*
X76317716Y-15703900D01*
X76317716Y-15703900D02*
X85207284Y-15703900D01*
X85207284Y-15703900D02*
X87662500Y-13248684D01*
X87662500Y-13248684D02*
X87662500Y-10535000D01*
%TO.N,thumb_resting*%
X86604500Y-8255000D02*
X84729500Y-6380000D01*
X84729500Y-6380000D02*
X77017500Y-6380000D01*
X77017500Y-6380000D02*
X75062500Y-8335000D01*
%TO.N,GND*%
X68915000Y8255000D02*
X68915000Y5986316D01*
X68915000Y5986316D02*
X71555216Y3346100D01*
X71555216Y3346100D02*
X80444784Y3346100D01*
X80444784Y3346100D02*
X82900000Y5801316D01*
X82900000Y5801316D02*
X82900000Y8515000D01*
%TO.N,matrix_inner_bottom*%
X81842000Y10795000D02*
X79967000Y12670000D01*
X79967000Y12670000D02*
X72255000Y12670000D01*
X72255000Y12670000D02*
X70300000Y10715000D01*
%TO.N,matrix_inner_home*%
X81842000Y29845000D02*
X79967000Y31720000D01*
X79967000Y31720000D02*
X72255000Y31720000D01*
X72255000Y31720000D02*
X70300000Y29765000D01*
%TO.N,GND*%
X68915000Y27305000D02*
X68915000Y25036316D01*
X80444784Y22396100D02*
X82900000Y24851316D01*
X68915000Y25036316D02*
X71555216Y22396100D01*
X71555216Y22396100D02*
X80444784Y22396100D01*
X82900000Y24851316D02*
X82900000Y27565000D01*
X68915000Y46355000D02*
X68915000Y44086316D01*
X68915000Y44086316D02*
X72361316Y40640000D01*
X72361316Y40640000D02*
X79638684Y40640000D01*
X79638684Y40640000D02*
X82900000Y43901316D01*
X82900000Y43901316D02*
X82900000Y46615000D01*
%TO.N,matrix_inner_top*%
X81842000Y48895000D02*
X79967000Y50770000D01*
X79967000Y50770000D02*
X72255000Y50770000D01*
X72255000Y50770000D02*
X70300000Y48815000D01*
%TO.N,GND*%
X49915000Y49212500D02*
X49915000Y46605000D01*
X49915000Y46605000D02*
X52216400Y44303600D01*
X52216400Y44303600D02*
X62083600Y44303600D01*
X62083600Y44303600D02*
X63900000Y46120000D01*
X63900000Y46120000D02*
X63900000Y49472500D01*
%TO.N,matrix_index_top*%
X62842000Y51752500D02*
X60967000Y53627500D01*
X60967000Y53627500D02*
X53255000Y53627500D01*
X53255000Y53627500D02*
X51300000Y51672500D01*
%TO.N,GND*%
X30915000Y54927500D02*
X30915000Y52658816D01*
X30915000Y52658816D02*
X33555216Y50018600D01*
X33555216Y50018600D02*
X42444784Y50018600D01*
X42444784Y50018600D02*
X44900000Y52473816D01*
X44900000Y52473816D02*
X44900000Y55187500D01*
%TO.N,matrix_middle_top*%
X43842000Y57467500D02*
X41967000Y59342500D01*
X41967000Y59342500D02*
X34255000Y59342500D01*
X34255000Y59342500D02*
X32300000Y57387500D01*
%TO.N,GND*%
X30915000Y35877500D02*
X30915000Y33608816D01*
X34043816Y30480000D02*
X41956184Y30480000D01*
X30915000Y33608816D02*
X34043816Y30480000D01*
X41956184Y30480000D02*
X44900000Y33423816D01*
X44900000Y33423816D02*
X44900000Y36137500D01*
%TO.N,matrix_middle_home*%
X43842000Y38417500D02*
X41967000Y40292500D01*
X41967000Y40292500D02*
X34255000Y40292500D01*
X34255000Y40292500D02*
X32300000Y38337500D01*
%TO.N,GND*%
X30915000Y16827500D02*
X30915000Y14558816D01*
X30915000Y14558816D02*
X33555216Y11918600D01*
X33555216Y11918600D02*
X42444784Y11918600D01*
X42444784Y11918600D02*
X44900000Y14373816D01*
X44900000Y14373816D02*
X44900000Y17087500D01*
%TO.N,matrix_middle_bottom*%
X43842000Y19367500D02*
X41967000Y21242500D01*
X41967000Y21242500D02*
X34255000Y21242500D01*
X34255000Y21242500D02*
X32300000Y19287500D01*
%TO.N,GND*%
X11915000Y12065000D02*
X11915000Y9796316D01*
X11915000Y9796316D02*
X14555216Y7156100D01*
X25900000Y9611316D02*
X25900000Y12325000D01*
X14555216Y7156100D02*
X23444784Y7156100D01*
X23444784Y7156100D02*
X25900000Y9611316D01*
%TO.N,matrix_ring_bottom*%
X24842000Y14605000D02*
X22967000Y16480000D01*
X22967000Y16480000D02*
X15255000Y16480000D01*
X15255000Y16480000D02*
X13300000Y14525000D01*
%TO.N,GND*%
X11915000Y31115000D02*
X11915000Y28846316D01*
X11915000Y28846316D02*
X14555216Y26206100D01*
X14555216Y26206100D02*
X23666100Y26206100D01*
X23666100Y26206100D02*
X25900000Y28440000D01*
X25900000Y28440000D02*
X25900000Y31375000D01*
%TO.N,matrix_ring_home*%
X24842000Y33655000D02*
X22967000Y35530000D01*
X22967000Y35530000D02*
X15255000Y35530000D01*
X15255000Y35530000D02*
X13300000Y33575000D01*
%TO.N,GND*%
X11915000Y50165000D02*
X11915000Y47896316D01*
X11915000Y47896316D02*
X14555216Y45256100D01*
X23444784Y45256100D02*
X25900000Y47711316D01*
X14555216Y45256100D02*
X23444784Y45256100D01*
X25900000Y47711316D02*
X25900000Y50425000D01*
%TO.N,matrix_ring_top*%
X24842000Y52705000D02*
X22967000Y54580000D01*
X22967000Y54580000D02*
X15255000Y54580000D01*
X15255000Y54580000D02*
X13300000Y52625000D01*
%TO.N,GND*%
X-7085000Y2540000D02*
X-7085000Y271316D01*
X-7085000Y271316D02*
X-4273684Y-2540000D01*
X-4273684Y-2540000D02*
X5080000Y-2540000D01*
X5080000Y-2540000D02*
X6900000Y-720000D01*
X6900000Y-720000D02*
X6900000Y2800000D01*
%TO.N,matrix_pinky_bottom*%
X5842000Y5080000D02*
X3967000Y6955000D01*
X3967000Y6955000D02*
X-3745000Y6955000D01*
X-3745000Y6955000D02*
X-5700000Y5000000D01*
%TO.N,GND*%
X-7085000Y21590000D02*
X-7085000Y19321316D01*
X-7085000Y19321316D02*
X-4444784Y16681100D01*
X-4444784Y16681100D02*
X4444784Y16681100D01*
X4444784Y16681100D02*
X6900000Y19136316D01*
X6900000Y19136316D02*
X6900000Y21850000D01*
%TO.N,matrix_pinky_home*%
X5842000Y24130000D02*
X3967000Y26005000D01*
X-3745000Y26005000D02*
X-5700000Y24050000D01*
X3967000Y26005000D02*
X-3745000Y26005000D01*
%TO.N,GND*%
X-7085000Y40640000D02*
X-7085000Y38371316D01*
X-7085000Y38371316D02*
X-4273684Y35560000D01*
X-4273684Y35560000D02*
X4273684Y35560000D01*
X4273684Y35560000D02*
X6900000Y38186316D01*
X6900000Y38186316D02*
X6900000Y40900000D01*
%TO.N,matrix_pinky_top*%
X5842000Y43180000D02*
X3967000Y45055000D01*
X-3745000Y45055000D02*
X-5700000Y43100000D01*
X3967000Y45055000D02*
X-3745000Y45055000D01*
%TD*%
M02*
