%TF.GenerationSoftware,KiCad,Pcbnew,7.0.0*%
%TF.CreationDate,2023-04-08T11:50:52+01:00*%
%TF.ProjectId,chips-34,63686970-732d-4333-942e-6b696361645f,v1.0.0*%
%TF.SameCoordinates,Original*%
%TF.FileFunction,Paste,Top*%
%TF.FilePolarity,Positive*%
%FSLAX46Y46*%
G04 Gerber Fmt 4.6, Leading zero omitted, Abs format (unit mm)*
G04 Created by KiCad (PCBNEW 7.0.0) date 2023-04-08 11:50:52*
%MOMM*%
%LPD*%
G01*
G04 APERTURE LIST*
%ADD10R,0.900000X0.900000*%
%ADD11R,0.900000X1.250000*%
%ADD12R,1.800000X1.100000*%
%ADD13R,2.550000X2.500000*%
G04 APERTURE END LIST*
D10*
%TO.C,T1*%
X17699999Y-22074999D03*
X17699999Y-19874999D03*
X10299999Y-19874999D03*
X10299999Y-22074999D03*
D11*
X16249999Y-18899999D03*
X14749999Y-18899999D03*
X11749999Y-18899999D03*
%TD*%
D12*
%TO.C,B1*%
X41099999Y-562499D03*
X34899999Y-562499D03*
X41099999Y3137499D03*
X34899999Y3137499D03*
%TD*%
D13*
%TO.C,S1*%
X7084999Y2539999D03*
X-5841999Y5079999D03*
%TD*%
%TO.C,S2*%
X7084999Y21589999D03*
X-5841999Y24129999D03*
%TD*%
%TO.C,S3*%
X7084999Y40639999D03*
X-5841999Y43179999D03*
%TD*%
%TO.C,S4*%
X26084999Y12064999D03*
X13157999Y14604999D03*
%TD*%
%TO.C,S5*%
X26084999Y31114999D03*
X13157999Y33654999D03*
%TD*%
%TO.C,S6*%
X26084999Y50164999D03*
X13157999Y52704999D03*
%TD*%
%TO.C,S7*%
X45084999Y16827499D03*
X32157999Y19367499D03*
%TD*%
%TO.C,S8*%
X45084999Y35877499D03*
X32157999Y38417499D03*
%TD*%
%TO.C,S9*%
X45084999Y54927499D03*
X32157999Y57467499D03*
%TD*%
%TO.C,S10*%
X64084999Y11112499D03*
X51157999Y13652499D03*
%TD*%
%TO.C,S11*%
X64084999Y30162499D03*
X51157999Y32702499D03*
%TD*%
%TO.C,S12*%
X64084999Y49212499D03*
X51157999Y51752499D03*
%TD*%
%TO.C,S13*%
X83084999Y8254999D03*
X70157999Y10794999D03*
%TD*%
%TO.C,S14*%
X83084999Y27304999D03*
X70157999Y29844999D03*
%TD*%
%TO.C,S15*%
X83084999Y46354999D03*
X70157999Y48894999D03*
%TD*%
%TO.C,S16*%
X87847499Y-10794999D03*
X74920499Y-8254999D03*
%TD*%
%TO.C,S17*%
X68797499Y-10794999D03*
X55870499Y-8254999D03*
%TD*%
M02*
