M48
; DRILL file {KiCad 7.0.0} date Sat 08 Apr 2023 11:50:51 BST
; FORMAT={-:-/ absolute / inch / decimal}
; #@! TF.CreationDate,2023-04-08T11:50:51+01:00
; #@! TF.GenerationSoftware,Kicad,Pcbnew,7.0.0
; #@! TF.FileFunction,NonPlated,1,2,NPTH
FMAT,2
INCH
; #@! TA.AperFunction,NonPlated,NPTH,ComponentDrill
T1C0.0354
; #@! TA.AperFunction,NonPlated,NPTH,ComponentDrill
T2C0.0591
; #@! TA.AperFunction,NonPlated,NPTH,ComponentDrill
T3C0.0670
; #@! TA.AperFunction,NonPlated,NPTH,ComponentDrill
T4C0.1181
; #@! TA.AperFunction,NonPlated,NPTH,ComponentDrill
T5C0.1570
%
G90
G05
T1
X0.4921Y-0.8258
X0.4921Y-0.8258
X0.6102Y-0.8258
X0.6102Y-0.8258
T2
X-0.2323Y2.3701
X-0.2323Y2.0945
X-0.1417Y2.3701
X-0.1417Y2.0945
X3.0197Y2.3116
X3.0197Y2.2211
X3.2953Y2.3116
X3.2953Y2.2211
T3
X-0.2Y1.5
X-0.2Y0.75
X-0.2Y0.0
X0.2Y1.5
X0.2Y0.75
X0.2Y0.0
X0.548Y1.875
X0.548Y1.125
X0.548Y0.375
X0.948Y1.875
X0.948Y1.125
X0.948Y0.375
X1.2961Y2.0625
X1.2961Y1.3125
X1.2961Y0.5625
X1.6961Y2.0625
X1.6961Y1.3125
X1.6961Y0.5625
X2.0441Y1.8375
X2.0441Y1.0875
X2.0441Y0.3375
X2.2296Y-0.525
X2.4441Y1.8375
X2.4441Y1.0875
X2.4441Y0.3375
X2.6296Y-0.525
X2.7921Y1.725
X2.7921Y0.975
X2.7921Y0.225
X2.9796Y-0.525
X3.1921Y1.725
X3.1921Y0.975
X3.1921Y0.225
X3.3796Y-0.525
T4
X-0.15Y1.6
X-0.15Y0.85
X-0.15Y0.1
X-0.1Y1.7
X-0.1Y0.95
X-0.1Y0.2
X0.1Y1.7
X0.1Y0.95
X0.1Y0.2
X0.15Y1.6
X0.15Y0.85
X0.15Y0.1
X0.598Y1.975
X0.598Y1.225
X0.598Y0.475
X0.648Y2.075
X0.648Y1.325
X0.648Y0.575
X0.848Y2.075
X0.848Y1.325
X0.848Y0.575
X0.898Y1.975
X0.898Y1.225
X0.898Y0.475
X1.3461Y2.1625
X1.3461Y1.4125
X1.3461Y0.6625
X1.3961Y2.2625
X1.3961Y1.5125
X1.3961Y0.7625
X1.5961Y2.2625
X1.5961Y1.5125
X1.5961Y0.7625
X1.6461Y2.1625
X1.6461Y1.4125
X1.6461Y0.6625
X2.0941Y1.9375
X2.0941Y1.1875
X2.0941Y0.4375
X2.1441Y2.0375
X2.1441Y1.2875
X2.1441Y0.5375
X2.2796Y-0.425
X2.3296Y-0.325
X2.3441Y2.0375
X2.3441Y1.2875
X2.3441Y0.5375
X2.3941Y1.9375
X2.3941Y1.1875
X2.3941Y0.4375
X2.5296Y-0.325
X2.5796Y-0.425
X2.8421Y1.825
X2.8421Y1.075
X2.8421Y0.325
X2.8921Y1.925
X2.8921Y1.175
X2.8921Y0.425
X3.0296Y-0.425
X3.0796Y-0.325
X3.0921Y1.925
X3.0921Y1.175
X3.0921Y0.425
X3.1421Y1.825
X3.1421Y1.075
X3.1421Y0.325
X3.2796Y-0.325
X3.3296Y-0.425
T5
X0.0Y1.5
X0.0Y0.75
X0.0Y0.0
X0.748Y1.875
X0.748Y1.125
X0.748Y0.375
X1.4961Y2.0625
X1.4961Y1.3125
X1.4961Y0.5625
X2.2441Y1.8375
X2.2441Y1.0875
X2.2441Y0.3375
X2.4296Y-0.525
X2.9921Y1.725
X2.9921Y0.975
X2.9921Y0.225
X3.1796Y-0.525
T0
M30
