M48
; DRILL file {KiCad 7.0.0} date Sat 08 Apr 2023 11:50:51 BST
; FORMAT={-:-/ absolute / inch / decimal}
; #@! TF.CreationDate,2023-04-08T11:50:51+01:00
; #@! TF.GenerationSoftware,Kicad,Pcbnew,7.0.0
; #@! TF.FileFunction,Plated,1,2,PTH
FMAT,2
INCH
; #@! TA.AperFunction,Plated,PTH,ComponentDrill
T1C0.0118
; #@! TA.AperFunction,Plated,PTH,ComponentDrill
T2C0.0157
; #@! TA.AperFunction,Plated,PTH,ComponentDrill
T3C0.0295
; #@! TA.AperFunction,Plated,PTH,ComponentDrill
T4C0.0354
; #@! TA.AperFunction,Plated,PTH,ComponentDrill
T5C0.0433
; #@! TA.AperFunction,Plated,PTH,ComponentDrill
T6C0.0866
%
G90
G05
T1
X-0.2244Y1.6969
X-0.2244Y0.9469
X-0.2244Y0.1969
X0.2717Y1.6102
X0.2717Y0.8602
X0.2717Y0.1102
X0.5118Y-0.6683
X0.5236Y2.0719
X0.5236Y1.3219
X0.5236Y0.5719
X0.5906Y-0.6683
X1.0154Y-0.0846
X1.0197Y1.9852
X1.0197Y1.2352
X1.0197Y0.4852
X1.2717Y2.2594
X1.2717Y1.5094
X1.2717Y0.7594
X1.4961Y0.2279
X1.4961Y-0.1265
X1.7677Y2.1727
X1.7677Y1.4227
X1.7677Y0.6727
X2.0197Y2.0344
X2.0197Y1.2844
X2.0197Y0.5344
X2.2052Y-0.3281
X2.5157Y1.9477
X2.5157Y1.1977
X2.5157Y0.4477
X2.7013Y-0.4148
X2.7677Y1.9219
X2.7677Y1.1719
X2.7677Y0.4219
X2.9552Y-0.3281
X3.2638Y1.8352
X3.2638Y1.0852
X3.2638Y0.3352
X3.4513Y-0.4148
T2
X0.8673Y-0.5175
X0.8673Y-0.5775
X0.9673Y-0.5175
X0.9673Y-0.5775
X1.0673Y-0.5175
X1.0673Y-0.5775
X1.1673Y-0.5175
X1.1673Y-0.5775
X1.2673Y-0.5175
X1.2673Y-0.5775
X1.3673Y-0.5175
X1.3673Y-0.5775
X1.4673Y-0.5175
X1.4673Y-0.5775
X1.5673Y-0.5175
X1.5673Y-0.5775
X1.6673Y-0.5175
X1.6673Y-0.5775
X1.7673Y-0.5175
X1.7673Y-0.5775
X1.8673Y-0.5175
X1.8673Y-0.5775
X1.9673Y-0.5175
X1.9673Y-0.5775
T3
X0.4803Y-0.1644
X0.5591Y-0.1644
X0.5906Y-0.0699
X0.6693Y-0.0699
T5
X0.8673Y-0.2475
X0.8673Y-0.2475
X0.8673Y-0.8475
X0.8673Y-0.8475
X0.9673Y-0.2475
X0.9673Y-0.8475
X1.0673Y-0.2475
X1.0673Y-0.8475
X1.1673Y-0.2475
X1.1673Y-0.8475
X1.2673Y-0.2475
X1.2673Y-0.8475
X1.3673Y-0.2475
X1.3673Y-0.8475
X1.4673Y-0.2475
X1.4673Y-0.8475
X1.5673Y-0.2475
X1.5673Y-0.8475
X1.6673Y-0.2475
X1.6673Y-0.8475
X1.7673Y-0.2475
X1.7673Y-0.8475
X1.8673Y-0.2475
X1.8673Y-0.8475
X1.9673Y-0.2475
X1.9673Y-0.8475
T6
X0.2362Y2.2835
X2.7559Y2.2835
T4
G00X-0.3228Y2.3189
M15
G01X-0.3228Y2.2953
M16
G05
G00X-0.3228Y2.2008
M15
G01X-0.3228Y2.1772
M16
G05
G00X-0.3228Y2.0433
M15
G01X-0.3228Y2.0197
M16
G05
G00X-0.2323Y2.0
M15
G01X-0.2323Y1.9764
M16
G05
G00X-0.1417Y2.0
M15
G01X-0.1417Y1.9764
M16
G05
G00X-0.0512Y2.3189
M15
G01X-0.0512Y2.2953
M16
G05
G00X-0.0512Y2.2008
M15
G01X-0.0512Y2.1772
M16
G05
G00X-0.0512Y2.0433
M15
G01X-0.0512Y2.0197
M16
G05
G00X2.9252Y2.3116
M15
G01X2.9016Y2.3116
M16
G05
G00X2.9252Y2.2211
M15
G01X2.9016Y2.2211
M16
G05
G00X2.9685Y2.4022
M15
G01X2.9449Y2.4022
M16
G05
G00X2.9685Y2.1305
M15
G01X2.9449Y2.1305
M16
G05
G00X3.126Y2.4022
M15
G01X3.1024Y2.4022
M16
G05
G00X3.126Y2.1305
M15
G01X3.1024Y2.1305
M16
G05
G00X3.2441Y2.4022
M15
G01X3.2205Y2.4022
M16
G05
G00X3.2441Y2.1305
M15
G01X3.2205Y2.1305
M16
G05
T0
M30
