M48
; DRILL file {KiCad 7.0.0} date Wed 01 Mar 2023 18:29:58 GMT
; FORMAT={-:-/ absolute / inch / decimal}
; #@! TF.CreationDate,2023-03-01T18:29:58+00:00
; #@! TF.GenerationSoftware,Kicad,Pcbnew,7.0.0
; #@! TF.FileFunction,Plated,1,2,PTH
FMAT,2
INCH
; #@! TA.AperFunction,Plated,PTH,ComponentDrill
T1C0.0157
; #@! TA.AperFunction,Plated,PTH,ComponentDrill
T2C0.0354
; #@! TA.AperFunction,Plated,PTH,ComponentDrill
T3C0.0433
; #@! TA.AperFunction,Plated,PTH,ComponentDrill
T4C0.0590
%
G90
G05
T1
X6.6689Y-6.585
X6.6689Y-6.645
X6.7689Y-6.585
X6.7689Y-6.645
X6.8689Y-6.585
X6.8689Y-6.645
X6.9689Y-6.585
X6.9689Y-6.645
X7.0689Y-6.585
X7.0689Y-6.645
X7.1689Y-6.585
X7.1689Y-6.645
X7.2689Y-6.585
X7.2689Y-6.645
X7.3689Y-6.585
X7.3689Y-6.645
X7.4689Y-6.585
X7.4689Y-6.645
X7.5689Y-6.585
X7.5689Y-6.645
X7.6689Y-6.585
X7.6689Y-6.645
X7.7689Y-6.585
X7.7689Y-6.645
T3
X6.6689Y-6.315
X6.6689Y-6.315
X6.6689Y-6.915
X6.6689Y-6.915
X6.7689Y-6.315
X6.7689Y-6.915
X6.8689Y-6.315
X6.8689Y-6.915
X6.9689Y-6.315
X6.9689Y-6.915
X7.0689Y-6.315
X7.0689Y-6.915
X7.1689Y-6.315
X7.1689Y-6.915
X7.2689Y-6.315
X7.2689Y-6.915
X7.3689Y-6.315
X7.3689Y-6.915
X7.4689Y-6.315
X7.4689Y-6.915
X7.5689Y-6.315
X7.5689Y-6.915
X7.6689Y-6.315
X7.6689Y-6.915
X7.7689Y-6.315
X7.7689Y-6.915
T4
X6.7539Y-4.25
X6.7539Y-5.0
X6.7539Y-5.75
X6.8039Y-4.15
X6.8039Y-4.9
X6.8039Y-5.65
X7.0039Y-4.15
X7.0039Y-4.9
X7.0039Y-5.65
X7.0539Y-4.25
X7.0539Y-5.0
X7.0539Y-5.75
X7.502Y-3.875
X7.502Y-4.625
X7.502Y-5.375
X7.552Y-3.775
X7.552Y-4.525
X7.552Y-5.275
X7.752Y-3.775
X7.752Y-4.525
X7.752Y-5.275
X7.802Y-3.875
X7.802Y-4.625
X7.802Y-5.375
X8.25Y-3.8
X8.25Y-4.55
X8.25Y-5.3
X8.3Y-3.7
X8.3Y-4.45
X8.3Y-5.2
X8.5Y-3.7
X8.5Y-4.45
X8.5Y-5.2
X8.55Y-3.8
X8.55Y-4.55
X8.55Y-5.3
X8.998Y-3.875
X8.998Y-4.625
X8.998Y-5.375
X8.998Y-6.125
X9.048Y-3.775
X9.048Y-4.525
X9.048Y-5.275
X9.048Y-6.025
X9.248Y-3.775
X9.248Y-4.525
X9.248Y-5.275
X9.248Y-6.025
X9.298Y-3.875
X9.298Y-4.625
X9.298Y-5.375
X9.298Y-6.125
X9.7461Y-3.95
X9.7461Y-4.7
X9.7461Y-5.45
X9.748Y-6.2
X9.7961Y-3.85
X9.7961Y-4.6
X9.7961Y-5.35
X9.798Y-6.1
X9.9961Y-3.85
X9.9961Y-4.6
X9.9961Y-5.35
X9.998Y-6.1
X10.0461Y-3.95
X10.0461Y-4.7
X10.0461Y-5.45
X10.048Y-6.2
T2
G00X7.9157Y-6.585
M15
G01X7.9157Y-6.5614
M16
G05
G00X7.9157Y-6.7425
M15
G01X7.9157Y-6.7189
M16
G05
G00X7.9157Y-6.8606
M15
G01X7.9157Y-6.837
M16
G05
G00X8.0063Y-6.5417
M15
G01X8.0063Y-6.5181
M16
G05
G00X8.0969Y-6.5417
M15
G01X8.0969Y-6.5181
M16
G05
G00X8.1874Y-6.585
M15
G01X8.1874Y-6.5614
M16
G05
G00X8.1874Y-6.7425
M15
G01X8.1874Y-6.7189
M16
G05
G00X8.1874Y-6.8606
M15
G01X8.1874Y-6.837
M16
G05
T0
M30
