M48
; DRILL file {KiCad 7.0.0} date Wed 01 Mar 2023 18:29:58 GMT
; FORMAT={-:-/ absolute / inch / decimal}
; #@! TF.CreationDate,2023-03-01T18:29:58+00:00
; #@! TF.GenerationSoftware,Kicad,Pcbnew,7.0.0
; #@! TF.FileFunction,NonPlated,1,2,NPTH
FMAT,2
INCH
; #@! TA.AperFunction,NonPlated,NPTH,ComponentDrill
T1C0.0591
; #@! TA.AperFunction,NonPlated,NPTH,ComponentDrill
T2C0.0670
; #@! TA.AperFunction,NonPlated,NPTH,ComponentDrill
T3C0.1570
%
G90
G05
T1
X8.0063Y-6.6362
X8.0063Y-6.9118
X8.0969Y-6.6362
X8.0969Y-6.9118
T2
X6.7039Y-4.35
X6.7039Y-5.1
X6.7039Y-5.85
X7.1039Y-4.35
X7.1039Y-5.1
X7.1039Y-5.85
X7.452Y-3.975
X7.452Y-4.725
X7.452Y-5.475
X7.852Y-3.975
X7.852Y-4.725
X7.852Y-5.475
X8.2Y-3.9
X8.2Y-4.65
X8.2Y-5.4
X8.6Y-3.9
X8.6Y-4.65
X8.6Y-5.4
X8.948Y-3.975
X8.948Y-4.725
X8.948Y-5.475
X8.948Y-6.225
X9.348Y-3.975
X9.348Y-4.725
X9.348Y-5.475
X9.348Y-6.225
X9.6961Y-4.05
X9.6961Y-4.8
X9.6961Y-5.55
X9.698Y-6.3
X10.0961Y-4.05
X10.0961Y-4.8
X10.0961Y-5.55
X10.098Y-6.3
T3
X6.9039Y-4.35
X6.9039Y-5.1
X6.9039Y-5.85
X7.652Y-3.975
X7.652Y-4.725
X7.652Y-5.475
X8.4Y-3.9
X8.4Y-4.65
X8.4Y-5.4
X9.148Y-3.975
X9.148Y-4.725
X9.148Y-5.475
X9.148Y-6.225
X9.8961Y-4.05
X9.8961Y-4.8
X9.8961Y-5.55
X9.898Y-6.3
T0
M30
